<svg width="120" height="41" viewBox="0 0 120 41" fill="none" xmlns="http://www.w3.org/2000/svg">
<rect x="0.5" y="0.956055" width="118.793" height="39" rx="6.5" fill="#0C0D10"/>
<path d="M24.7973 19.0364C24.819 17.3554 25.7217 15.7648 27.1539 14.8844C26.2504 13.594 24.7371 12.7759 23.1627 12.7267C21.4835 12.5504 19.8555 13.7315 18.9998 13.7315C18.1275 13.7315 16.81 12.7442 15.3913 12.7734C13.5421 12.8331 11.8181 13.8845 10.9184 15.5012C8.98439 18.8497 10.427 23.7707 12.2796 26.4773C13.2065 27.8027 14.2898 29.2831 15.7072 29.2306C17.0943 29.1731 17.6123 28.3461 19.2866 28.3461C20.9454 28.3461 21.4314 29.2306 22.8776 29.1972C24.366 29.1731 25.3038 27.866 26.1981 26.5281C26.8641 25.5837 27.3766 24.54 27.7166 23.4356C25.9674 22.6958 24.7994 20.9355 24.7973 19.0364Z" fill="white"/>
<path d="M22.0656 10.9467C22.8772 9.97247 23.277 8.72029 23.1802 7.45605C21.9403 7.58628 20.7951 8.17883 19.9726 9.11566C19.1683 10.031 18.7497 11.2611 18.8289 12.4771C20.0692 12.4898 21.2885 11.9133 22.0656 10.9467Z" fill="white"/>
<path d="M34.7168 7.75073V13.7397H36.8792C38.6638 13.7397 39.6973 12.6399 39.6973 10.7266C39.6973 8.84229 38.6555 7.75073 36.8792 7.75073H34.7168ZM35.6465 8.59741H36.7754C38.0164 8.59741 38.751 9.38599 38.751 10.739C38.751 12.1128 38.0288 12.8931 36.7754 12.8931H35.6465V8.59741Z" fill="white"/>
<path d="M42.8624 13.8269C44.1822 13.8269 44.9915 12.9429 44.9915 11.4778C44.9915 10.021 44.178 9.13281 42.8624 9.13281C41.5425 9.13281 40.7291 10.021 40.7291 11.4778C40.7291 12.9429 41.5384 13.8269 42.8624 13.8269ZM42.8624 13.0342C42.0862 13.0342 41.6504 12.4656 41.6504 11.4778C41.6504 10.4983 42.0862 9.92554 42.8624 9.92554C43.6343 9.92554 44.0743 10.4983 44.0743 11.4778C44.0743 12.4614 43.6343 13.0342 42.8624 13.0342Z" fill="white"/>
<path d="M51.8836 9.21997H50.9913L50.1861 12.6689H50.1156L49.1859 9.21997H48.3309L47.4012 12.6689H47.3348L46.5255 9.21997H45.6207L46.8658 13.7397H47.7831L48.7127 10.4111H48.7833L49.7171 13.7397H50.6427L51.8836 9.21997Z" fill="white"/>
<path d="M52.9113 13.7397H53.8036V11.0959C53.8036 10.3904 54.2228 9.95044 54.8827 9.95044C55.5426 9.95044 55.8581 10.3115 55.8581 11.0378V13.7397H56.7504V10.8137C56.7504 9.73877 56.1942 9.13281 55.1857 9.13281C54.505 9.13281 54.0568 9.43579 53.8368 9.93799H53.7704V9.21997H52.9113V13.7397Z" fill="white"/>
<path d="M58.1557 13.7397H59.048V7.45605H58.1557V13.7397Z" fill="white"/>
<path d="M62.4041 13.8269C63.7239 13.8269 64.5332 12.9429 64.5332 11.4778C64.5332 10.021 63.7197 9.13281 62.4041 9.13281C61.0842 9.13281 60.2708 10.021 60.2708 11.4778C60.2708 12.9429 61.0801 13.8269 62.4041 13.8269ZM62.4041 13.0342C61.6279 13.0342 61.1921 12.4656 61.1921 11.4778C61.1921 10.4983 61.6279 9.92554 62.4041 9.92554C63.176 9.92554 63.616 10.4983 63.616 11.4778C63.616 12.4614 63.176 13.0342 62.4041 13.0342Z" fill="white"/>
<path d="M67.1919 13.0632C66.7063 13.0632 66.3536 12.8267 66.3536 12.4199C66.3536 12.0215 66.6358 11.8098 67.2583 11.7683L68.3624 11.6978V12.0754C68.3624 12.6357 67.8643 13.0632 67.1919 13.0632ZM66.9637 13.8145C67.5572 13.8145 68.0511 13.5571 68.3208 13.1047H68.3914V13.7397H69.2505V10.6519C69.2505 9.69727 68.6114 9.13281 67.4783 9.13281C66.4532 9.13281 65.7227 9.63086 65.6314 10.407H66.4947C66.5943 10.0874 66.9388 9.90479 67.4368 9.90479C68.0469 9.90479 68.3624 10.1746 68.3624 10.6519V11.042L67.138 11.1125C66.063 11.179 65.4571 11.6479 65.4571 12.4614C65.4571 13.2874 66.0921 13.8145 66.9637 13.8145Z" fill="white"/>
<path d="M72.2787 13.8145C72.9012 13.8145 73.4283 13.5198 73.6981 13.0259H73.7687V13.7397H74.6236V7.45605H73.7313V9.93799H73.6649C73.42 9.43994 72.8971 9.14526 72.2787 9.14526C71.1373 9.14526 70.4027 10.05 70.4027 11.4778C70.4027 12.9097 71.129 13.8145 72.2787 13.8145ZM72.5318 9.94629C73.2789 9.94629 73.7479 10.5398 73.7479 11.4819C73.7479 12.4282 73.2831 13.0134 72.5318 13.0134C71.7765 13.0134 71.3241 12.4365 71.3241 11.4778C71.3241 10.5273 71.7806 9.94629 72.5318 9.94629Z" fill="white"/>
<path d="M80.4101 13.8269C81.7299 13.8269 82.5393 12.9429 82.5393 11.4778C82.5393 10.021 81.7258 9.13281 80.4101 9.13281C79.0903 9.13281 78.2768 10.021 78.2768 11.4778C78.2768 12.9429 79.0861 13.8269 80.4101 13.8269ZM80.4101 13.0342C79.634 13.0342 79.1982 12.4656 79.1982 11.4778C79.1982 10.4983 79.634 9.92554 80.4101 9.92554C81.1821 9.92554 81.622 10.4983 81.622 11.4778C81.622 12.4614 81.1821 13.0342 80.4101 13.0342Z" fill="white"/>
<path d="M83.7205 13.7397H84.6128V11.0959C84.6128 10.3904 85.032 9.95044 85.6919 9.95044C86.3518 9.95044 86.6672 10.3115 86.6672 11.0378V13.7397H87.5596V10.8137C87.5596 9.73877 87.0034 9.13281 85.9949 9.13281C85.3142 9.13281 84.866 9.43579 84.646 9.93799H84.5796V9.21997H83.7205V13.7397Z" fill="white"/>
<path d="M91.6693 8.09521V9.24072H90.9513V9.99194H91.6693V12.5444C91.6693 13.416 92.0636 13.7646 93.0555 13.7646C93.2298 13.7646 93.3958 13.7439 93.5411 13.719V12.9761C93.4166 12.9885 93.3377 12.9968 93.2008 12.9968C92.7567 12.9968 92.5616 12.7893 92.5616 12.3162V9.99194H93.5411V9.24072H92.5616V8.09521H91.6693Z" fill="white"/>
<path d="M94.7389 13.7397H95.6312V11.1001C95.6312 10.4153 96.038 9.95459 96.7685 9.95459C97.3993 9.95459 97.7355 10.3198 97.7355 11.042V13.7397H98.6278V10.822C98.6278 9.74707 98.0343 9.13696 97.0714 9.13696C96.3908 9.13696 95.9135 9.43994 95.6935 9.94629H95.6229V7.45605H94.7389V13.7397Z" fill="white"/>
<path d="M101.847 9.89233C102.507 9.89233 102.938 10.353 102.959 11.0627H100.676C100.726 10.3572 101.187 9.89233 101.847 9.89233ZM102.955 12.5195C102.789 12.8723 102.42 13.0674 101.88 13.0674C101.166 13.0674 100.706 12.5652 100.676 11.7725V11.7227H103.868V11.4114C103.868 9.99194 103.109 9.13281 101.851 9.13281C100.577 9.13281 99.7675 10.05 99.7675 11.4944C99.7675 12.9387 100.56 13.8269 101.855 13.8269C102.889 13.8269 103.611 13.3289 103.814 12.5195H102.955Z" fill="white"/>
<path d="M81.7903 19.2538V21.5449H80.3543V23.0473H81.7903V28.1523C81.7903 29.8954 82.5789 30.5927 84.5628 30.5927C84.9114 30.5927 85.2435 30.5512 85.534 30.5014V29.0156C85.285 29.0405 85.1272 29.0571 84.8533 29.0571C83.9651 29.0571 83.575 28.642 83.575 27.6957V23.0473H85.534V21.5449H83.575V19.2538H81.7903Z" fill="white"/>
<path d="M90.5878 30.7172C93.2275 30.7172 94.8461 28.9492 94.8461 26.019C94.8461 23.1054 93.2192 21.329 90.5878 21.329C87.9482 21.329 86.3212 23.1054 86.3212 26.019C86.3212 28.9492 87.9399 30.7172 90.5878 30.7172ZM90.5878 29.1318C89.0356 29.1318 88.164 27.9946 88.164 26.019C88.164 24.06 89.0356 22.9145 90.5878 22.9145C92.1318 22.9145 93.0117 24.06 93.0117 26.019C93.0117 27.9863 92.1318 29.1318 90.5878 29.1318Z" fill="white"/>
<path d="M96.231 30.5429H98.0157V25.2055C98.0157 23.9355 98.9703 23.0805 100.323 23.0805C100.639 23.0805 101.17 23.1386 101.319 23.1884V21.4286C101.128 21.3788 100.788 21.3539 100.523 21.3539C99.3438 21.3539 98.3394 22.0014 98.0821 22.8896H97.9493V21.5034H96.231V30.5429Z" fill="white"/>
<path d="M105.751 22.8481C107.071 22.8481 107.934 23.7695 107.975 25.1889H103.41C103.509 23.7778 104.431 22.8481 105.751 22.8481ZM107.967 28.1025C107.635 28.808 106.896 29.1982 105.817 29.1982C104.389 29.1982 103.468 28.1938 103.41 26.6083V26.5087H109.793V25.8862C109.793 23.0473 108.274 21.329 105.759 21.329C103.211 21.329 101.592 23.1635 101.592 26.0522C101.592 28.9409 103.177 30.7172 105.767 30.7172C107.834 30.7172 109.279 29.7211 109.685 28.1025H107.967Z" fill="white"/>
<path d="M70.0867 27.2047C70.2244 29.4244 72.0742 30.844 74.8273 30.844C77.7697 30.844 79.6108 29.3556 79.6108 26.981C79.6108 25.1141 78.5612 24.0817 76.0146 23.488L74.6466 23.1525C73.0291 22.7739 72.3753 22.2663 72.3753 21.3802C72.3753 20.2617 73.3905 19.5304 74.9133 19.5304C76.3587 19.5304 77.3567 20.2445 77.5374 21.3888H79.413C79.3011 19.2981 77.46 17.8269 74.9391 17.8269C72.229 17.8269 70.4223 19.2981 70.4223 21.5092C70.4223 23.3332 71.4461 24.4172 73.6916 24.942L75.2919 25.3292C76.9351 25.7163 77.6578 26.2842 77.6578 27.2305C77.6578 28.3318 76.5222 29.1319 74.9735 29.1319C73.3131 29.1319 72.1602 28.3834 71.9967 27.2047H70.0867Z" fill="white"/>
<path d="M51.5994 21.3539C50.3709 21.3539 49.3084 21.9682 48.7605 22.9975H48.6277V21.5034H46.9095V33.5478H48.6941V29.1733H48.8353C49.3084 30.1279 50.3294 30.6923 51.616 30.6923C53.8987 30.6923 55.3514 28.891 55.3514 26.019C55.3514 23.1469 53.8987 21.3539 51.5994 21.3539ZM51.0931 29.0903C49.5989 29.0903 48.6609 27.9116 48.6609 26.0273C48.6609 24.1347 49.5989 22.956 51.1014 22.956C52.6121 22.956 53.5169 24.1098 53.5169 26.019C53.5169 27.9365 52.6121 29.0903 51.0931 29.0903Z" fill="white"/>
<path d="M61.5962 21.3539C60.3677 21.3539 59.3052 21.9682 58.7573 22.9975H58.6245V21.5034H56.9063V33.5478H58.6909V29.1733H58.8321C59.3052 30.1279 60.3262 30.6923 61.6128 30.6923C63.8955 30.6923 65.3482 28.891 65.3482 26.019C65.3482 23.1469 63.8955 21.3539 61.5962 21.3539ZM61.0899 29.0903C59.5957 29.0903 58.6577 27.9116 58.6577 26.0273C58.6577 24.1347 59.5957 22.956 61.0982 22.956C62.6089 22.956 63.5137 24.1098 63.5137 26.019C63.5137 27.9365 62.6089 29.0903 61.0899 29.0903Z" fill="white"/>
<path d="M43.7075 30.5429H45.7551L41.2727 18.128H39.1992L34.7168 30.5429H36.6956L37.8399 27.2478H42.5718L43.7075 30.5429ZM40.137 20.3821H40.2833L42.0814 25.6303H38.3303L40.137 20.3821Z" fill="white"/>
<rect x="0.5" y="0.956055" width="118.793" height="39" rx="6.5" stroke="#A6A6A6"/>
</svg>
