<svg width="136" height="41" viewBox="0 0 136 41" fill="none" xmlns="http://www.w3.org/2000/svg">
<rect x="0.5" y="0.956055" width="134.79" height="39" rx="4.5" fill="black"/>
<path d="M20.7446 19.7396L10.0981 31.0396C10.0985 31.042 10.0993 31.0439 10.0997 31.0463C10.4262 32.2732 11.5469 33.1768 12.877 33.1768C13.4087 33.1768 13.9079 33.033 14.336 32.7807L14.37 32.7607L26.354 25.8455L20.7446 19.7396" fill="#EA4335"/>
<path d="M31.5158 17.8153L31.5056 17.8083L26.3318 14.809L20.5029 19.9958L26.3521 25.8442L31.4986 22.8747C32.4009 22.3876 33.0134 21.4364 33.0134 20.3395C33.0134 19.2505 32.4091 18.304 31.5158 17.8153" fill="#FBBC04"/>
<path d="M10.0976 9.59263C10.0336 9.82863 10 10.0758 10 10.3325V30.3001C10 30.5564 10.0332 30.8044 10.098 31.0396L21.1109 20.0286L10.0976 9.59263Z" fill="#4285F4"/>
<path d="M20.8231 20.3164L26.3337 14.8074L14.3633 7.86721C13.9282 7.60661 13.4204 7.45621 12.877 7.45621C11.5469 7.45621 10.4247 8.36131 10.0981 9.58981C10.0977 9.59101 10.0977 9.59181 10.0977 9.59291L20.8231 20.3164Z" fill="#34A853"/>
<path d="M44.2397 13.9436C43.3432 13.9436 42.572 13.6281 41.9503 13.0065C41.3282 12.3844 41.0132 11.6055 41.0132 10.6998C41.0132 9.79416 41.3284 9.01665 41.9503 8.39321C42.572 7.77145 43.3432 7.4561 44.2397 7.4561C44.6965 7.4561 45.1228 7.53499 45.5302 7.69926C45.9377 7.86355 46.2711 8.09162 46.5337 8.39008L46.5956 8.46059L45.8962 9.15981L45.8263 9.07387C45.6522 8.85993 45.4307 8.69371 45.1501 8.57289C44.8705 8.45238 44.5643 8.39672 44.2397 8.39672C43.6083 8.39672 43.0843 8.61117 42.6468 9.04711C42.6467 9.04721 42.6465 9.04721 42.6464 9.04731C42.2188 9.49206 42.0038 10.0335 42.0038 10.6999C42.0038 11.3667 42.219 11.9083 42.6472 12.3532C43.0847 12.7889 43.6086 13.0045 44.2397 13.0045C44.8178 13.0045 45.2959 12.8432 45.6718 12.5237H45.672C46.0219 12.2264 46.2319 11.8245 46.3061 11.3124H44.1397V10.3905H47.2425L47.2558 10.4749C47.2812 10.6369 47.2991 10.7933 47.2991 10.9436C47.2991 11.8038 47.0369 12.5059 46.5224 13.0225C45.9416 13.6382 45.1777 13.9436 44.2397 13.9436L44.2397 13.9436ZM71.1815 13.9436C70.2836 13.9436 69.5215 13.628 68.9077 13.0065C68.9076 13.0064 68.9076 13.0064 68.9075 13.0063C68.9074 13.0062 68.9074 13.0062 68.9073 13.0061C68.2927 12.3913 67.9878 11.6122 67.9878 10.6998C67.9878 9.78745 68.2927 9.00838 68.9073 8.39359C68.9074 8.39352 68.9074 8.39349 68.9075 8.39339L68.9077 8.39319C69.5215 7.77159 70.2836 7.45608 71.1815 7.45608C72.0777 7.45608 72.8401 7.77167 73.4538 8.40256C74.0686 9.01726 74.3737 9.79485 74.3737 10.6998C74.3737 11.6122 74.0688 12.3913 73.4542 13.0061L73.454 13.0063C72.8399 13.6282 72.0704 13.9436 71.1815 13.9436L71.1815 13.9436ZM48.187 13.8092V7.59047H48.287H51.9011V8.5311H49.1604V10.2389H51.6323V11.1608H49.1604V12.8702H51.9011V13.8092H48.187ZM54.1741 13.8092V8.5311H52.4929V7.59047H56.8288V8.5311H56.7288H55.1476V13.8092H54.1741ZM59.5999 13.8092V7.59047H60.5733V7.69047V13.8092H59.5999ZM63.0237 13.8092V8.5311H61.3425V7.59047H65.6784V8.5311H65.5784H63.9972V13.8092H63.0237ZM75.2378 13.8092V7.59047H76.3354L79.129 12.0627L79.105 11.2137V7.59047H80.0784V13.8092H79.1151L76.1872 9.11098L76.2112 9.95942V9.96078V13.8092H75.2378ZM71.1815 13.0045C71.813 13.0045 72.3285 12.7892 72.7487 12.3539L72.7493 12.3531L72.7499 12.3525C73.1761 11.9262 73.3847 11.3774 73.3847 10.6998C73.3847 10.0238 73.176 9.47319 72.7499 9.04708L72.7493 9.04648L72.7487 9.04588C72.3286 8.61075 71.8132 8.39666 71.1815 8.39666C70.5489 8.39666 70.0335 8.61038 69.6054 9.04549L69.605 9.04589C69.1867 9.48235 68.9784 10.024 68.9784 10.6998C68.9784 11.3772 69.1866 11.9172 69.605 12.3537L69.6054 12.3541C70.0335 12.7893 70.549 13.0045 71.1815 13.0045V13.0045Z" fill="white"/>
<path d="M106.908 30.8962H108.774V18.3946H106.908V30.8962ZM123.715 22.8982L121.576 28.3181H121.512L119.292 22.8982H117.282L120.612 30.4732L118.713 34.6873H120.659L125.79 22.8982H123.715ZM113.132 29.4763C112.522 29.4763 111.669 29.1704 111.669 28.4146C111.669 27.4497 112.731 27.0798 113.647 27.0798C114.467 27.0798 114.854 27.2564 115.352 27.4978C115.207 28.656 114.21 29.4763 113.132 29.4763V29.4763ZM113.358 22.6247C112.007 22.6247 110.608 23.22 110.029 24.5388L111.685 25.2302C112.039 24.5388 112.698 24.3138 113.39 24.3138C114.355 24.3138 115.336 24.8923 115.352 25.922V26.0505C115.014 25.8575 114.29 25.5681 113.406 25.5681C111.62 25.5681 109.803 26.5489 109.803 28.3825C109.803 30.0552 111.267 31.133 112.907 31.133C114.161 31.133 114.854 30.57 115.287 29.9103H115.352V30.8759H117.154V26.0825C117.154 23.863 115.496 22.6247 113.358 22.6247V22.6247ZM101.826 24.42H99.1718V20.1349H101.826C103.221 20.1349 104.013 21.2896 104.013 22.2774C104.013 23.2462 103.221 24.42 101.826 24.42V24.42ZM101.778 18.3946H97.3066V30.8962H99.1718V26.1599H101.778C103.846 26.1599 105.879 24.663 105.879 22.2774C105.879 19.8923 103.846 18.3946 101.778 18.3946ZM77.3964 29.4786C76.1073 29.4786 75.0284 28.3989 75.0284 26.9173C75.0284 25.4185 76.1073 24.3235 77.3964 24.3235C78.6691 24.3235 79.6679 25.4185 79.6679 26.9173C79.6679 28.3989 78.6691 29.4786 77.3964 29.4786V29.4786ZM79.539 23.5982H79.4745C79.0558 23.0989 78.2499 22.6478 77.2355 22.6478C75.1085 22.6478 73.1593 24.5169 73.1593 26.9173C73.1593 29.3013 75.1085 31.1541 77.2355 31.1541C78.2499 31.1541 79.0558 30.7028 79.4745 30.1876H79.539V30.7993C79.539 32.4271 78.6691 33.2966 77.2675 33.2966C76.1241 33.2966 75.4152 32.4752 75.1249 31.7826L73.498 32.4591C73.9648 33.5865 75.205 34.9724 77.2675 34.9724C79.4589 34.9724 81.3116 33.6834 81.3116 30.5415V22.9056H79.539V23.5982ZM82.6007 30.8962H84.4687V18.3946H82.6007V30.8962ZM87.2238 26.772C87.1757 25.1286 88.4972 24.2911 89.4472 24.2911C90.1886 24.2911 90.8163 24.6618 91.0265 25.1931L87.2238 26.772ZM93.0234 25.354C92.6691 24.404 91.5898 22.6478 89.3827 22.6478C87.1913 22.6478 85.371 24.3716 85.371 26.9009C85.371 29.2853 87.1757 31.1541 89.5917 31.1541C91.5409 31.1541 92.6691 29.9622 93.1366 29.2692L91.6866 28.3024C91.2031 29.0114 90.5429 29.4786 89.5917 29.4786C88.6417 29.4786 87.9648 29.0435 87.5304 28.1896L93.2167 25.8376L93.0234 25.354ZM47.7156 23.9528V25.7571H52.0331C51.9042 26.772 51.5659 27.513 51.0503 28.0286C50.4218 28.6567 49.439 29.3497 47.7156 29.3497C45.0573 29.3497 42.9792 27.2071 42.9792 24.5489C42.9792 21.8907 45.0573 19.7478 47.7156 19.7478C49.1495 19.7478 50.1964 20.3118 50.9698 21.0368L52.2429 19.7638C51.1632 18.7329 49.7296 17.9435 47.7156 17.9435C44.0741 17.9435 41.0132 20.9079 41.0132 24.5489C41.0132 28.1896 44.0741 31.1541 47.7156 31.1541C49.6808 31.1541 51.1632 30.5095 52.323 29.3013C53.5152 28.1091 53.8859 26.4337 53.8859 25.0802C53.8859 24.6618 53.8534 24.2751 53.789 23.9528H47.7156ZM58.7945 29.4786C57.5054 29.4786 56.3937 28.4153 56.3937 26.9009C56.3937 25.3704 57.5054 24.3235 58.7945 24.3235C60.0831 24.3235 61.1948 25.3704 61.1948 26.9009C61.1948 28.4153 60.0831 29.4786 58.7945 29.4786V29.4786ZM58.7945 22.6478C56.4417 22.6478 54.5249 24.436 54.5249 26.9009C54.5249 29.3497 56.4417 31.1541 58.7945 31.1541C61.1464 31.1541 63.0636 29.3497 63.0636 26.9009C63.0636 24.436 61.1464 22.6478 58.7945 22.6478ZM68.1073 29.4786C66.8191 29.4786 65.707 28.4153 65.707 26.9009C65.707 25.3704 66.8191 24.3235 68.1073 24.3235C69.3964 24.3235 70.5077 25.3704 70.5077 26.9009C70.5077 28.4153 69.3964 29.4786 68.1073 29.4786ZM68.1073 22.6478C65.7554 22.6478 63.8386 24.436 63.8386 26.9009C63.8386 29.3497 65.7554 31.1541 68.1073 31.1541C70.4601 31.1541 72.3769 29.3497 72.3769 26.9009C72.3769 24.436 70.4601 22.6478 68.1073 22.6478Z" fill="white"/>
<rect x="0.5" y="0.956055" width="134.79" height="39" rx="4.5" stroke="#A6A6A6"/>
</svg>
